<svg xmlns="http://www.w3.org/2000/svg" viewBox="0 0 363.01 239.71"><defs><style>.cls-1{fill:#fcfcfc;stroke:#bec4c6;stroke-miterlimit:10;stroke-width:2px;opacity:0.53;}.cls-2{fill:#4e99ff;}.cls-3{fill:#bec4c6;}.cls-4{fill:#2d4c7a;}.cls-5{fill:#e5173a;}.cls-13,.cls-6{font-size:13px;}.cls-10,.cls-11,.cls-12,.cls-13,.cls-6{fill:#fff;}.cls-13,.cls-6,.cls-7,.cls-8{font-family:ProximaNova-Bold, Proxima Nova;font-weight:700;}.cls-10,.cls-11,.cls-6,.cls-9{letter-spacing:-0.02em;}.cls-10,.cls-7,.cls-8{font-size:10px;}.cls-7,.cls-8{fill:#001646;}.cls-7{letter-spacing:-0.02em;}.cls-8{letter-spacing:-0.04em;}.cls-10,.cls-11{font-family:ProximaNova-Regular, Proxima Nova;}.cls-11{font-size:12px;}.cls-13{letter-spacing:-0.02em;}</style></defs><title>classical_3</title><g id="Layer_2" data-name="Layer 2"><g id="Layer_1-2" data-name="Layer 1"><line class="cls-1" x1="219.5" y1="129.81" x2="269.36" y2="129.81"/><line class="cls-1" x1="90.55" y1="129.81" x2="133.62" y2="129.81"/><rect class="cls-2" x="40.23" y="18.84" width="117.14" height="51.98" rx="14.8"/><rect class="cls-3" x="202.19" y="18.84" width="117.14" height="51.98" rx="14.8"/><rect class="cls-2" y="104.31" width="98.8" height="51" rx="13.46"/><rect class="cls-4" x="130.07" y="102.37" width="98.8" height="51" rx="13.46"/><rect class="cls-5" x="264.22" y="102.37" width="98.8" height="51" rx="13.46"/><rect class="cls-2" x="39.92" y="187.73" width="117.14" height="51.98" rx="14.8"/><rect class="cls-5" x="201.88" y="187.73" width="117.14" height="51.98" rx="14.8"/><text class="cls-6" transform="translate(87.99 41.14)">Bell</text><text class="cls-6" transform="translate(223.78 41.14)">No Salivation</text><text class="cls-7" transform="translate(2.62 8.34)">Before Conditioning</text><text class="cls-7" transform="translate(2.4 92.59)">During Conditioning</text><text class="cls-8" transform="translate(3.9 177.74)">A<tspan class="cls-9" x="6.44" y="0">fter Conditioning</tspan></text><line class="cls-1" x1="157.36" y1="44.83" x2="202.19" y2="44.83"/><line class="cls-1" x1="157.36" y1="213.72" x2="202.19" y2="213.72"/><text class="cls-10" transform="translate(62.22 55.53)">(Neutral Stimulus)</text><text class="cls-11" transform="translate(224.84 55.53)">(No Response)</text><text class="cls-6" transform="translate(37.59 121.83)">Bell</text><path class="cls-12" d="M32.49,134.13a7.58,7.58,0,0,1,0-4.68,7.68,7.68,0,0,1,1-2.08l.46.34a10.25,10.25,0,0,0-.79,2,8,8,0,0,0-.26,2.11,8.07,8.07,0,0,0,.26,2.11,9.93,9.93,0,0,0,.79,2l-.46.35A7.53,7.53,0,0,1,32.49,134.13Z"/><path class="cls-12" d="M34.74,134.22v-6.67h.85l3.83,5.21v-5.21h.83v6.67h-.8l-3.88-5.32v5.32Z"/><path class="cls-12" d="M41.3,131.8a2.7,2.7,0,0,1,.3-1.27,2.36,2.36,0,0,1,.85-.92,2.25,2.25,0,0,1,1.22-.34,2.21,2.21,0,0,1,2.06,1.28,3.07,3.07,0,0,1,.27,1.31v.19H42.09a1.8,1.8,0,0,0,.51,1.19,1.63,1.63,0,0,0,1.22.48,2.1,2.1,0,0,0,.82-.16,2.14,2.14,0,0,0,.69-.46l.36.49a2.67,2.67,0,0,1-1.93.75,2.34,2.34,0,0,1-1.77-.71A2.51,2.51,0,0,1,41.3,131.8Zm.78-.31h3.17a1.52,1.52,0,0,0-.1-.55,1.6,1.6,0,0,0-.28-.51,1.32,1.32,0,0,0-.5-.39,1.58,1.58,0,0,0-.71-.15A1.5,1.5,0,0,0,43,130a1.25,1.25,0,0,0-.49.38,1.9,1.9,0,0,0-.3.51A1.87,1.87,0,0,0,42.08,131.49Z"/><path class="cls-12" d="M47,132.8v-3.41h.75v3.18a1.1,1.1,0,0,0,.28.86,1.19,1.19,0,0,0,.81.24,1.69,1.69,0,0,0,.81-.21,1.83,1.83,0,0,0,.61-.51v-3.56H51v4.83h-.75v-.67a2.59,2.59,0,0,1-.76.56,2,2,0,0,1-1,.23A1.36,1.36,0,0,1,47,132.8Z"/><path class="cls-12" d="M51.65,130v-.65h.82v-1.33h.74v1.33h1V130h-1v3a.69.69,0,0,0,.13.45.39.39,0,0,0,.35.17.64.64,0,0,0,.51-.21l.22.57a1.2,1.2,0,0,1-.88.31,1,1,0,0,1-.8-.29,1.21,1.21,0,0,1-.27-.84V130Z"/><path class="cls-12" d="M55.06,134.22v-4.83h.75v.76a2.54,2.54,0,0,1,.72-.63,1.75,1.75,0,0,1,.89-.24V130l-.29,0a1.49,1.49,0,0,0-.75.24,1.55,1.55,0,0,0-.57.53v3.43Z"/><path class="cls-12" d="M57.89,132.74A1.6,1.6,0,0,1,58,132a1.32,1.32,0,0,1,.38-.51,1.89,1.89,0,0,1,1.14-.38,2,2,0,0,1,1.6.65v-.87a.89.89,0,0,0-.34-.74,1.38,1.38,0,0,0-.88-.27,1.94,1.94,0,0,0-1.48.67l-.34-.52a2.54,2.54,0,0,1,1.92-.8,2.75,2.75,0,0,1,.73.09,1.89,1.89,0,0,1,.59.28,1.27,1.27,0,0,1,.4.51,1.79,1.79,0,0,1,.15.75v3.32h-.75v-.55a2,2,0,0,1-1.6.67,1.72,1.72,0,0,1-.6-.1,1.91,1.91,0,0,1-.54-.3,1.32,1.32,0,0,1-.38-.51A1.52,1.52,0,0,1,57.89,132.74Zm.75,0a1,1,0,0,0,.33.76,1.28,1.28,0,0,0,.87.3,1.94,1.94,0,0,0,.76-.15,1.38,1.38,0,0,0,.56-.45v-.92a1.34,1.34,0,0,0-.56-.43,1.79,1.79,0,0,0-.76-.16,1.23,1.23,0,0,0-.86.3A.93.93,0,0,0,58.64,132.74Z"/><path class="cls-12" d="M63.23,134.22v-6.67H64v6.67Z"/><path class="cls-12" d="M30.82,146.47l.5-.64a2.87,2.87,0,0,0,.9.7,2.6,2.6,0,0,0,1.19.27,2.42,2.42,0,0,0,.75-.11,1.34,1.34,0,0,0,.49-.28,1.05,1.05,0,0,0,.25-.37,1,1,0,0,0,.08-.41.86.86,0,0,0-.13-.48,1.07,1.07,0,0,0-.36-.34,3.25,3.25,0,0,0-.53-.21l-.63-.19-.65-.19a3.07,3.07,0,0,1-.62-.24,2.37,2.37,0,0,1-.53-.33,1.27,1.27,0,0,1-.36-.48,1.65,1.65,0,0,1-.14-.68,1.63,1.63,0,0,1,.66-1.34,2.57,2.57,0,0,1,1.64-.51,3.11,3.11,0,0,1,2.36.93l-.5.61a2.44,2.44,0,0,0-1.92-.8,1.58,1.58,0,0,0-1,.3.92.92,0,0,0-.39.77.68.68,0,0,0,.14.42.88.88,0,0,0,.36.3,2.93,2.93,0,0,0,.53.21l.62.18.66.19a3.66,3.66,0,0,1,.62.25,2.86,2.86,0,0,1,.53.35,1.51,1.51,0,0,1,.36.52,1.73,1.73,0,0,1,.13.71,1.87,1.87,0,0,1-.13.71,1.83,1.83,0,0,1-1.19,1.08,3.51,3.51,0,0,1-1.14.17,3.6,3.6,0,0,1-1.47-.29A3.19,3.19,0,0,1,30.82,146.47Z"/><path class="cls-12" d="M36.19,143.24v-.65H37v-1.33h.75v1.33h1v.65h-1v3a.75.75,0,0,0,.12.45.42.42,0,0,0,.36.17.64.64,0,0,0,.51-.21l.22.57a1.22,1.22,0,0,1-.89.31,1,1,0,0,1-.8-.3,1.18,1.18,0,0,1-.27-.84v-3.16Z"/><path class="cls-12" d="M39.61,141.75a.45.45,0,0,1-.15-.35.51.51,0,0,1,.87-.36.52.52,0,0,1,.14.36.48.48,0,0,1-.14.35.51.51,0,0,1-.72,0Zm0,5.67v-4.83h.75v4.83Z"/><path class="cls-12" d="M41.64,147.42v-4.83h.75v.7a1.89,1.89,0,0,1,.64-.55,1.73,1.73,0,0,1,.93-.27,1.34,1.34,0,0,1,.85.25,1.23,1.23,0,0,1,.44.65,2,2,0,0,1,.67-.63,1.85,1.85,0,0,1,.95-.27,1.34,1.34,0,0,1,1,.36,1.61,1.61,0,0,1,.34,1.1v3.49h-.75v-3.28c0-.67-.3-1-.89-1a1.48,1.48,0,0,0-.73.21,1.65,1.65,0,0,0-.55.53v3.54h-.75v-3.28c0-.67-.3-1-.89-1a1.31,1.31,0,0,0-.71.22,1.68,1.68,0,0,0-.56.53v3.53Z"/><path class="cls-12" d="M49.52,146v-3.41h.74v3.18a1.1,1.1,0,0,0,.28.85,1.17,1.17,0,0,0,.81.25,1.69,1.69,0,0,0,.81-.21,1.66,1.66,0,0,0,.61-.52v-3.55h.75v4.83h-.75v-.68a2.4,2.4,0,0,1-.75.57,2.19,2.19,0,0,1-1,.23A1.36,1.36,0,0,1,49.52,146Z"/><path class="cls-12" d="M54.82,147.42v-6.67h.75v6.67Z"/><path class="cls-12" d="M56.87,146v-3.41h.75v3.18a1.06,1.06,0,0,0,.28.85,1.14,1.14,0,0,0,.81.25,1.69,1.69,0,0,0,.81-.21,1.74,1.74,0,0,0,.61-.52v-3.55h.74v4.83h-.74v-.68a2.45,2.45,0,0,1-.76.57,2.12,2.12,0,0,1-1,.23A1.36,1.36,0,0,1,56.87,146Z"/><path class="cls-12" d="M61.77,146.77l.37-.54a2.14,2.14,0,0,0,.69.49,2.18,2.18,0,0,0,.9.2,1.39,1.39,0,0,0,.85-.23.7.7,0,0,0,.31-.6.54.54,0,0,0-.17-.39,1,1,0,0,0-.43-.24l-.58-.16-.63-.18a2.6,2.6,0,0,1-.59-.24,1.1,1.1,0,0,1-.43-.4,1.12,1.12,0,0,1-.16-.62,1.23,1.23,0,0,1,.47-1,2,2,0,0,1,1.32-.4,2.33,2.33,0,0,1,1.78.71l-.34.51a1.69,1.69,0,0,0-.61-.44,2,2,0,0,0-.83-.16,1.23,1.23,0,0,0-.78.22.68.68,0,0,0-.3.56.5.5,0,0,0,.16.36,1,1,0,0,0,.43.23l.58.16.64.17A3.06,3.06,0,0,1,65,145a1.08,1.08,0,0,1,.44.41,1.19,1.19,0,0,1,.17.63,1.33,1.33,0,0,1-.5,1.06,2.16,2.16,0,0,1-1.4.41A2.55,2.55,0,0,1,61.77,146.77Z"/><path class="cls-12" d="M66.84,147.09a8.65,8.65,0,0,0,0-4.21,11.4,11.4,0,0,0-.79-2l.45-.34a7.24,7.24,0,0,1,1.06,2.07,7.85,7.85,0,0,1,.37,2.35,7.73,7.73,0,0,1-.37,2.34,7.29,7.29,0,0,1-1.06,2.08l-.45-.35A11.09,11.09,0,0,0,66.84,147.09Z"/><text class="cls-13" transform="translate(164.37 119.64)">Food</text><path class="cls-12" d="M148.4,131.94a7.43,7.43,0,0,1,0-4.69,7,7,0,0,1,1-2.07l.45.34a11.4,11.4,0,0,0-.79,2,8.65,8.65,0,0,0,0,4.21,11.09,11.09,0,0,0,.79,2l-.45.35A7.14,7.14,0,0,1,148.4,131.94Z"/><path class="cls-12" d="M150.64,129.44v-4.08h.83v4.06a2.06,2.06,0,0,0,.49,1.46,1.8,1.8,0,0,0,1.39.53,1.85,1.85,0,0,0,1.41-.53,2.13,2.13,0,0,0,.49-1.46v-4.06h.83v4.07a2.78,2.78,0,0,1-.7,2,2.69,2.69,0,0,1-2,.72,2.62,2.62,0,0,1-2-.73A2.71,2.71,0,0,1,150.64,129.44Z"/><path class="cls-12" d="M157.42,132V127.2h.75v.7a2.35,2.35,0,0,1,.75-.58,2.12,2.12,0,0,1,1-.24,1.37,1.37,0,0,1,1.53,1.56V132h-.74v-3.16a1.12,1.12,0,0,0-.29-.87,1.15,1.15,0,0,0-.8-.25,1.69,1.69,0,0,0-.81.21,1.94,1.94,0,0,0-.62.54V132Z"/><path class="cls-12" d="M162.45,129.61a2.73,2.73,0,0,1,.31-1.29,2.28,2.28,0,0,1,.86-.91,2.37,2.37,0,0,1,1.26-.33,2.1,2.1,0,0,1,1.76.84l-.49.45a1.45,1.45,0,0,0-1.23-.62,1.54,1.54,0,0,0-1.22.52,2.22,2.22,0,0,0,0,2.68,1.55,1.55,0,0,0,1.22.53,1.48,1.48,0,0,0,1.23-.63l.49.46a2.1,2.1,0,0,1-1.76.84,2.29,2.29,0,0,1-1.75-.73A2.56,2.56,0,0,1,162.45,129.61Z"/><path class="cls-12" d="M167.5,130.89a2.87,2.87,0,0,1-.29-1.28,2.83,2.83,0,0,1,.29-1.28,2.23,2.23,0,0,1,.84-.91,2.29,2.29,0,0,1,1.26-.34,2.34,2.34,0,0,1,1.27.34,2.3,2.3,0,0,1,.84.91,2.83,2.83,0,0,1,.28,1.28,2.86,2.86,0,0,1-.28,1.28,2.28,2.28,0,0,1-2.11,1.26,2.29,2.29,0,0,1-1.26-.34A2.25,2.25,0,0,1,167.5,130.89Zm.5-1.28a2.08,2.08,0,0,0,.43,1.33,1.42,1.42,0,0,0,1.17.54,1.49,1.49,0,0,0,.87-.26,1.61,1.61,0,0,0,.55-.69,2.25,2.25,0,0,0,.18-.92,2.29,2.29,0,0,0-.18-.92,1.59,1.59,0,0,0-.55-.68,1.42,1.42,0,0,0-.87-.26,1.44,1.44,0,0,0-.87.26,1.66,1.66,0,0,0-.55.68A2.32,2.32,0,0,0,168,129.61Z"/><path class="cls-12" d="M173,132V127.2h.75v.7a2.35,2.35,0,0,1,.75-.58,2.12,2.12,0,0,1,1-.24,1.37,1.37,0,0,1,1.53,1.56V132h-.74v-3.16a1,1,0,0,0-1.09-1.12,1.69,1.69,0,0,0-.81.21,1.94,1.94,0,0,0-.62.54V132Z"/><path class="cls-12" d="M178.05,129.62a2.74,2.74,0,0,1,.6-1.85,2,2,0,0,1,1.56-.69,1.87,1.87,0,0,1,.9.22,2.16,2.16,0,0,1,.72.63v-2.57h.75V132h-.75v-.72a2,2,0,0,1-.71.61,1.92,1.92,0,0,1-.91.23,2,2,0,0,1-1.56-.69A2.68,2.68,0,0,1,178.05,129.62Zm1.21-1.35a2.09,2.09,0,0,0-.42,1.35,2.12,2.12,0,0,0,.41,1.34,1.38,1.38,0,0,0,1.14.52,1.7,1.7,0,0,0,.84-.22,1.53,1.53,0,0,0,.6-.55v-2.18a1.63,1.63,0,0,0-.6-.56,1.7,1.7,0,0,0-.84-.22A1.36,1.36,0,0,0,179.26,128.27Z"/><path class="cls-12" d="M183.89,126.36a.45.45,0,0,1-.15-.35.51.51,0,0,1,.87-.36.48.48,0,0,1,.14.36.45.45,0,0,1-.14.35.51.51,0,0,1-.72,0Zm0,5.67V127.2h.74V132Z"/><path class="cls-12" d="M185.25,127.85v-.65h.82v-1.33h.75v1.33h1v.65h-1v3a.75.75,0,0,0,.12.45.41.41,0,0,0,.35.17.64.64,0,0,0,.52-.21l.22.57a1.24,1.24,0,0,1-.89.31,1,1,0,0,1-.8-.3,1.18,1.18,0,0,1-.27-.84v-3.16Z"/><path class="cls-12" d="M188.68,126.36a.45.45,0,0,1-.15-.35.51.51,0,0,1,.51-.51.45.45,0,0,1,.35.15.49.49,0,0,1,.15.36.51.51,0,0,1-.5.5A.49.49,0,0,1,188.68,126.36Zm0,5.67V127.2h.75V132Z"/><path class="cls-12" d="M190.71,130.89a2.87,2.87,0,0,1-.29-1.28,2.83,2.83,0,0,1,.29-1.28,2.23,2.23,0,0,1,.84-.91,2.34,2.34,0,0,1,1.27-.34,2.29,2.29,0,0,1,1.26.34,2.23,2.23,0,0,1,.84.91,2.83,2.83,0,0,1,.28,1.28,2.86,2.86,0,0,1-.28,1.28,2.25,2.25,0,0,1-.84.92,2.29,2.29,0,0,1-1.26.34,2.34,2.34,0,0,1-1.27-.34A2.25,2.25,0,0,1,190.71,130.89Zm.51-1.28a2.08,2.08,0,0,0,.43,1.33,1.4,1.4,0,0,0,1.17.54,1.46,1.46,0,0,0,.86-.26,1.61,1.61,0,0,0,.55-.69,2.25,2.25,0,0,0,.18-.92,2.29,2.29,0,0,0-.18-.92,1.59,1.59,0,0,0-.55-.68,1.39,1.39,0,0,0-.86-.26,1.42,1.42,0,0,0-.87.26,1.59,1.59,0,0,0-.55.68A2.32,2.32,0,0,0,191.22,129.61Z"/><path class="cls-12" d="M196.23,132V127.2H197v.7a2.35,2.35,0,0,1,.75-.58,2.16,2.16,0,0,1,1-.24,1.37,1.37,0,0,1,1.53,1.56V132h-.75v-3.16a1.12,1.12,0,0,0-.28-.87,1.17,1.17,0,0,0-.81-.25,1.69,1.69,0,0,0-.81.21,2.18,2.18,0,0,0-.62.54V132Z"/><path class="cls-12" d="M201.26,129.61a2.74,2.74,0,0,1,.3-1.28,2.4,2.4,0,0,1,.85-.91,2.26,2.26,0,0,1,1.23-.34,2.22,2.22,0,0,1,1.24.34,2.15,2.15,0,0,1,.81.93,3.11,3.11,0,0,1,.27,1.32v.19h-3.91a1.82,1.82,0,0,0,.51,1.19,1.63,1.63,0,0,0,1.22.48,2.07,2.07,0,0,0,.82-.16,2.14,2.14,0,0,0,.69-.46l.36.49a2.67,2.67,0,0,1-1.93.75,2.37,2.37,0,0,1-1.77-.71A2.51,2.51,0,0,1,201.26,129.61Zm.78-.31h3.17a1.49,1.49,0,0,0-.1-.55,1.55,1.55,0,0,0-.28-.52,1.21,1.21,0,0,0-.5-.38,1.57,1.57,0,0,0-.7-.15,1.65,1.65,0,0,0-.68.14,1.37,1.37,0,0,0-.49.39,1.63,1.63,0,0,0-.3.51A1.81,1.81,0,0,0,202,129.3Z"/><path class="cls-12" d="M206.69,129.62a2.74,2.74,0,0,1,.6-1.85,2,2,0,0,1,1.56-.69,1.87,1.87,0,0,1,.9.22,2,2,0,0,1,.72.63v-2.57h.75V132h-.75v-.72a2,2,0,0,1-3.18.15A2.68,2.68,0,0,1,206.69,129.62Zm1.21-1.35a2.09,2.09,0,0,0-.42,1.35,2.07,2.07,0,0,0,.42,1.34,1.37,1.37,0,0,0,1.14.52,1.69,1.69,0,0,0,.83-.22,1.53,1.53,0,0,0,.6-.55v-2.18a1.55,1.55,0,0,0-.6-.56,1.69,1.69,0,0,0-.83-.22A1.38,1.38,0,0,0,207.9,128.27Z"/><path class="cls-12" d="M162.4,144.28l.5-.64a2.91,2.91,0,0,0,.89.69,2.65,2.65,0,0,0,1.2.27,2.37,2.37,0,0,0,.74-.1,1.27,1.27,0,0,0,.49-.29,1.14,1.14,0,0,0,.26-.37,1.1,1.1,0,0,0,.08-.4.87.87,0,0,0-.14-.48,1.07,1.07,0,0,0-.36-.34,2.35,2.35,0,0,0-.53-.22l-.63-.18-.65-.19a3.61,3.61,0,0,1-.62-.24,2.1,2.1,0,0,1-.52-.33,1.3,1.3,0,0,1-.37-.49,1.59,1.59,0,0,1-.13-.68,1.64,1.64,0,0,1,.65-1.33,2.58,2.58,0,0,1,1.65-.52,3.11,3.11,0,0,1,2.36.94l-.5.61a2.43,2.43,0,0,0-1.93-.81,1.53,1.53,0,0,0-1,.3.94.94,0,0,0-.39.78.68.68,0,0,0,.13.42,1.07,1.07,0,0,0,.36.3,2.94,2.94,0,0,0,.53.2l.63.19.65.19a2.6,2.6,0,0,1,.62.25,2.56,2.56,0,0,1,.53.35,1.47,1.47,0,0,1,.36.51,1.8,1.8,0,0,1,.14.71,1.89,1.89,0,0,1-.14.72,1.91,1.91,0,0,1-.41.62,2,2,0,0,1-.77.46,3.6,3.6,0,0,1-1.14.17,3.69,3.69,0,0,1-1.48-.29A3.06,3.06,0,0,1,162.4,144.28Z"/><path class="cls-12" d="M167.76,141v-.64h.81v-1.34h.75v1.34h1V141h-1v3a.76.76,0,0,0,.12.46.43.43,0,0,0,.36.17.64.64,0,0,0,.51-.21l.22.57a1.27,1.27,0,0,1-.89.31,1,1,0,0,1-.79-.3,1.21,1.21,0,0,1-.28-.84V141Z"/><path class="cls-12" d="M171.19,139.56a.49.49,0,0,1-.15-.36.51.51,0,0,1,.5-.5.49.49,0,0,1,.36.15.45.45,0,0,1,.15.35.51.51,0,0,1-.51.51A.45.45,0,0,1,171.19,139.56Zm0,5.66V140.4h.75v4.82Z"/><path class="cls-12" d="M173.21,145.22V140.4H174v.69a2.14,2.14,0,0,1,.64-.55,1.78,1.78,0,0,1,.93-.27,1.35,1.35,0,0,1,.85.26,1.14,1.14,0,0,1,.44.65,1.9,1.9,0,0,1,.68-.63,1.72,1.72,0,0,1,.94-.28,1.33,1.33,0,0,1,1,.37,1.53,1.53,0,0,1,.34,1.09v3.49H179v-3.28c0-.66-.29-1-.89-1a1.34,1.34,0,0,0-.72.22,1.66,1.66,0,0,0-.56.52v3.54h-.75v-3.28c0-.66-.29-1-.89-1a1.43,1.43,0,0,0-.71.22,1.9,1.9,0,0,0-.56.53v3.53Z"/><path class="cls-12" d="M181.09,143.8v-3.4h.75v3.18a1.07,1.07,0,0,0,.28.85,1.14,1.14,0,0,0,.81.25,1.69,1.69,0,0,0,.81-.21,1.85,1.85,0,0,0,.61-.52V140.4h.74v4.82h-.74v-.67a2.45,2.45,0,0,1-.76.57,2.12,2.12,0,0,1-1,.23A1.37,1.37,0,0,1,181.09,143.8Z"/><path class="cls-12" d="M186.4,145.22v-6.67h.75v6.67Z"/><path class="cls-12" d="M188.44,143.8v-3.4h.75v3.18a1.07,1.07,0,0,0,.28.85,1.14,1.14,0,0,0,.81.25,1.69,1.69,0,0,0,.81-.21,1.85,1.85,0,0,0,.61-.52V140.4h.75v4.82h-.75v-.67a2.34,2.34,0,0,1-.76.57,2.12,2.12,0,0,1-1,.23A1.37,1.37,0,0,1,188.44,143.8Z"/><path class="cls-12" d="M193.34,144.58l.38-.54a2.25,2.25,0,0,0,.68.49,2.19,2.19,0,0,0,.91.2,1.43,1.43,0,0,0,.85-.23.71.71,0,0,0,.3-.6.5.5,0,0,0-.16-.39,1,1,0,0,0-.44-.24l-.58-.17-.63-.18a2.78,2.78,0,0,1-.59-.23,1.26,1.26,0,0,1-.43-.4,1.12,1.12,0,0,1-.16-.62,1.25,1.25,0,0,1,.48-1,2,2,0,0,1,1.31-.4,2.37,2.37,0,0,1,1.79.72l-.35.51a1.62,1.62,0,0,0-.6-.44,2.14,2.14,0,0,0-.84-.17,1.27,1.27,0,0,0-.78.23.66.66,0,0,0-.29.56.46.46,0,0,0,.16.36,1.05,1.05,0,0,0,.42.22l.58.16.64.18a3.15,3.15,0,0,1,.59.23,1.23,1.23,0,0,1,.43.42,1.19,1.19,0,0,1,.17.63,1.3,1.3,0,0,1-.5,1.05,2.08,2.08,0,0,1-1.39.42A2.58,2.58,0,0,1,193.34,144.58Z"/><path class="cls-12" d="M198.41,144.9a8.65,8.65,0,0,0,0-4.21,10.65,10.65,0,0,0-.79-2l.46-.35a7.68,7.68,0,0,1,1,2.08,7.62,7.62,0,0,1,0,4.69,7.68,7.68,0,0,1-1,2.08l-.46-.35A10.65,10.65,0,0,0,198.41,144.9Z"/><text class="cls-13" transform="translate(287.86 119.48)">Salivation</text><path class="cls-12" d="M283.23,131.78a7.56,7.56,0,0,1,1-6.76l.46.34a10.65,10.65,0,0,0-.79,2,8.65,8.65,0,0,0,0,4.21,10.38,10.38,0,0,0,.79,2l-.46.35A7.68,7.68,0,0,1,283.23,131.78Z"/><path class="cls-12" d="M285.48,129.28V125.2h.83v4a2.12,2.12,0,0,0,.48,1.47,1.82,1.82,0,0,0,1.4.53,1.79,1.79,0,0,0,1.4-.54,2,2,0,0,0,.49-1.46v-4h.83v4.07a2.78,2.78,0,0,1-.69,2,2.7,2.7,0,0,1-2,.72,2.66,2.66,0,0,1-2-.73A2.74,2.74,0,0,1,285.48,129.28Z"/><path class="cls-12" d="M292.26,131.87V127H293v.7a2.35,2.35,0,0,1,.75-.58,2.16,2.16,0,0,1,1-.24,1.37,1.37,0,0,1,1.53,1.56v3.39h-.75v-3.16a1.12,1.12,0,0,0-.28-.87,1.18,1.18,0,0,0-.81-.26,1.63,1.63,0,0,0-.8.22,2.09,2.09,0,0,0-.63.54v3.53Z"/><path class="cls-12" d="M297.29,129.45a2.73,2.73,0,0,1,.3-1.29,2.35,2.35,0,0,1,.86-.91,2.42,2.42,0,0,1,1.26-.33,2.11,2.11,0,0,1,1.77.84l-.5.45a1.43,1.43,0,0,0-1.23-.63,1.53,1.53,0,0,0-1.21.53,2.18,2.18,0,0,0,0,2.68,1.54,1.54,0,0,0,1.21.53,1.46,1.46,0,0,0,1.23-.63l.5.46a2.11,2.11,0,0,1-1.77.84,2.25,2.25,0,0,1-1.74-.73A2.56,2.56,0,0,1,297.29,129.45Z"/><path class="cls-12" d="M302.33,130.73a2.86,2.86,0,0,1-.28-1.28,2.83,2.83,0,0,1,.28-1.28,2.37,2.37,0,0,1,.84-.91,2.54,2.54,0,0,1,2.54,0,2.27,2.27,0,0,1,.83.91,2.83,2.83,0,0,1,.29,1.28,2.87,2.87,0,0,1-.29,1.28,2.3,2.3,0,0,1-.83.92,2.54,2.54,0,0,1-2.54,0A2.4,2.4,0,0,1,302.33,130.73Zm.51-1.28a2.08,2.08,0,0,0,.43,1.33,1.4,1.4,0,0,0,1.17.54,1.51,1.51,0,0,0,.87-.26,1.67,1.67,0,0,0,.54-.69,2.1,2.1,0,0,0,.19-.92,2.13,2.13,0,0,0-.19-.92,1.64,1.64,0,0,0-.54-.68,1.54,1.54,0,0,0-1.74,0,1.59,1.59,0,0,0-.55.68A2.32,2.32,0,0,0,302.84,129.45Z"/><path class="cls-12" d="M307.85,131.87V127h.74v.7a2.29,2.29,0,0,1,.76-.58,2.12,2.12,0,0,1,1-.24,1.37,1.37,0,0,1,1.53,1.56v3.39h-.75v-3.16a1.12,1.12,0,0,0-.28-.87,1.18,1.18,0,0,0-.81-.26,1.69,1.69,0,0,0-.8.22,2.09,2.09,0,0,0-.63.54v3.53Z"/><path class="cls-12" d="M312.88,129.46a2.74,2.74,0,0,1,.6-1.85,2,2,0,0,1,1.56-.69,1.91,1.91,0,0,1,.91.22,2.16,2.16,0,0,1,.72.63V125.2h.74v6.67h-.74v-.72a2.08,2.08,0,0,1-.71.61,1.93,1.93,0,0,1-.92.23,2,2,0,0,1-1.56-.69A2.68,2.68,0,0,1,312.88,129.46Zm1.21-1.35a2.36,2.36,0,0,0,0,2.69,1.38,1.38,0,0,0,1.14.52,1.79,1.79,0,0,0,1.44-.77v-2.18a1.66,1.66,0,0,0-.61-.56,1.71,1.71,0,0,0-.83-.23A1.39,1.39,0,0,0,314.09,128.11Z"/><path class="cls-12" d="M318.73,126.2a.45.45,0,0,1-.15-.35.51.51,0,0,1,.51-.51.45.45,0,0,1,.35.15.49.49,0,0,1,.15.36.51.51,0,0,1-.5.5A.49.49,0,0,1,318.73,126.2Zm0,5.67V127h.75v4.83Z"/><path class="cls-12" d="M320.09,127.69V127h.81v-1.33h.75V127h1v.65h-1v3a.75.75,0,0,0,.12.45.42.42,0,0,0,.36.17.64.64,0,0,0,.51-.21l.22.57a1.22,1.22,0,0,1-.89.31,1,1,0,0,1-.8-.3,1.18,1.18,0,0,1-.27-.84v-3.16Z"/><path class="cls-12" d="M323.51,126.2a.48.48,0,0,1-.14-.35.52.52,0,0,1,.14-.36.51.51,0,0,1,.87.36.45.45,0,0,1-.15.35.51.51,0,0,1-.72,0Zm0,5.67V127h.74v4.83Z"/><path class="cls-12" d="M325.55,130.73a2.87,2.87,0,0,1-.29-1.28,2.83,2.83,0,0,1,.29-1.28,2.23,2.23,0,0,1,.84-.91,2.29,2.29,0,0,1,1.26-.34,2.34,2.34,0,0,1,1.27.34,2.2,2.2,0,0,1,.83.91,2.71,2.71,0,0,1,.29,1.28,2.74,2.74,0,0,1-.29,1.28,2.23,2.23,0,0,1-.83.92,2.34,2.34,0,0,1-1.27.34,2.29,2.29,0,0,1-1.26-.34A2.25,2.25,0,0,1,325.55,130.73Zm.5-1.28a2.08,2.08,0,0,0,.43,1.33,1.42,1.42,0,0,0,1.17.54,1.51,1.51,0,0,0,.87-.26,1.61,1.61,0,0,0,.55-.69,2.25,2.25,0,0,0,.18-.92,2.29,2.29,0,0,0-.18-.92,1.59,1.59,0,0,0-.55-.68,1.54,1.54,0,0,0-1.74,0,1.66,1.66,0,0,0-.55.68A2.32,2.32,0,0,0,326.05,129.45Z"/><path class="cls-12" d="M331.06,131.87V127h.75v.7a2.35,2.35,0,0,1,.75-.58,2.12,2.12,0,0,1,1-.24,1.37,1.37,0,0,1,1.53,1.56v3.39h-.74v-3.16a1,1,0,0,0-1.09-1.13,1.7,1.7,0,0,0-.81.22,1.94,1.94,0,0,0-.62.54v3.53Z"/><path class="cls-12" d="M336.1,129.45a2.74,2.74,0,0,1,.3-1.28,2.33,2.33,0,0,1,.85-.91,2.22,2.22,0,0,1,1.22-.34,2.25,2.25,0,0,1,1.25.34,2.22,2.22,0,0,1,.81.93,3.11,3.11,0,0,1,.27,1.32v.19h-3.91a1.82,1.82,0,0,0,.51,1.19,1.63,1.63,0,0,0,1.22.48,2.14,2.14,0,0,0,.82-.16,2,2,0,0,0,.68-.46l.36.49a2.63,2.63,0,0,1-1.92.75,2.37,2.37,0,0,1-1.77-.71A2.51,2.51,0,0,1,336.1,129.45Zm.78-.31h3.17a1.72,1.72,0,0,0-.1-.55,1.75,1.75,0,0,0-.28-.52,1.21,1.21,0,0,0-.5-.38,1.61,1.61,0,0,0-.71-.15,1.46,1.46,0,0,0-.67.14,1.41,1.41,0,0,0-.5.39,1.9,1.9,0,0,0-.41,1.07Z"/><path class="cls-12" d="M341.53,129.46a2.74,2.74,0,0,1,.6-1.85,2,2,0,0,1,1.56-.69,1.87,1.87,0,0,1,.9.22,2.16,2.16,0,0,1,.72.63V125.2h.75v6.67h-.75v-.72a2,2,0,0,1-.71.61,1.92,1.92,0,0,1-.91.23,2,2,0,0,1-1.56-.69A2.68,2.68,0,0,1,341.53,129.46Zm1.21-1.35a2.09,2.09,0,0,0-.42,1.35,2.14,2.14,0,0,0,.41,1.34,1.38,1.38,0,0,0,1.14.52,1.7,1.7,0,0,0,.84-.22,1.53,1.53,0,0,0,.6-.55v-2.18a1.63,1.63,0,0,0-.6-.56,1.71,1.71,0,0,0-.84-.23A1.37,1.37,0,0,0,342.74,128.11Z"/><path class="cls-12" d="M293.16,145.06v-6.67h2.68a2.14,2.14,0,0,1,1.51.55,1.94,1.94,0,0,1,.59,1.47,2.11,2.11,0,0,1-.15.8,1.56,1.56,0,0,1-.39.6,1.93,1.93,0,0,1-.55.38,2.14,2.14,0,0,1-.66.17l1.81,2.7h-1l-1.69-2.63H294v2.63Zm.83-3.37h1.74a1.34,1.34,0,0,0,1-.36,1.23,1.23,0,0,0,.38-.92,1.2,1.2,0,0,0-.38-.92,1.32,1.32,0,0,0-1-.35H294Z"/><path class="cls-12" d="M298.73,142.64a2.62,2.62,0,0,1,.31-1.27,2.28,2.28,0,0,1,.85-.92,2.31,2.31,0,0,1,1.22-.34,2.28,2.28,0,0,1,1.25.35,2.19,2.19,0,0,1,.8.93,3.12,3.12,0,0,1,.28,1.32v.19h-3.92a1.79,1.79,0,0,0,.52,1.19,1.6,1.6,0,0,0,1.21.48,2.26,2.26,0,0,0,.82-.16,2.09,2.09,0,0,0,.69-.46l.36.48a2.6,2.6,0,0,1-1.92.76,2.41,2.41,0,0,1-1.78-.71A2.53,2.53,0,0,1,298.73,142.64Zm.78-.31h3.18a2.2,2.2,0,0,0-.1-.55,2.12,2.12,0,0,0-.28-.51,1.41,1.41,0,0,0-.5-.39,1.64,1.64,0,0,0-.71-.15,1.54,1.54,0,0,0-.68.15,1.57,1.57,0,0,0-.49.38,2,2,0,0,0-.29.52A1.57,1.57,0,0,0,299.51,142.33Z"/><path class="cls-12" d="M304,144.42l.38-.54a2.18,2.18,0,0,0,.69.49,2.15,2.15,0,0,0,.9.2,1.41,1.41,0,0,0,.85-.23.72.72,0,0,0,.31-.6.51.51,0,0,0-.17-.39,1,1,0,0,0-.43-.24l-.58-.17-.64-.18a3,3,0,0,1-.58-.23,1.1,1.1,0,0,1-.43-.4,1.13,1.13,0,0,1-.17-.62,1.25,1.25,0,0,1,.48-1,2,2,0,0,1,1.31-.4,2.34,2.34,0,0,1,1.79.72l-.34.51a1.65,1.65,0,0,0-.61-.44,2.07,2.07,0,0,0-.84-.17,1.27,1.27,0,0,0-.78.23.68.68,0,0,0-.29.56.46.46,0,0,0,.16.36,1,1,0,0,0,.43.22l.58.16.63.18a2.9,2.9,0,0,1,.59.23,1.26,1.26,0,0,1,.44.42,1.18,1.18,0,0,1,.16.63,1.29,1.29,0,0,1-.49,1.05,2.11,2.11,0,0,1-1.4.42A2.58,2.58,0,0,1,304,144.42Z"/><path class="cls-12" d="M308.89,146.91v-6.67h.75V141a2.11,2.11,0,0,1,.71-.61,2.07,2.07,0,0,1,2.48.45,3.15,3.15,0,0,1,0,3.7,1.93,1.93,0,0,1-1.56.7,1.88,1.88,0,0,1-.9-.23,2.26,2.26,0,0,1-.73-.62v2.57Zm.75-3.17a1.57,1.57,0,0,0,.61.55,1.71,1.71,0,0,0,.83.23,1.35,1.35,0,0,0,1.13-.53,2.36,2.36,0,0,0,0-2.69,1.37,1.37,0,0,0-1.13-.52,1.71,1.71,0,0,0-.83.23,1.63,1.63,0,0,0-.61.54Z"/><path class="cls-12" d="M314.42,143.92a2.95,2.95,0,0,1,0-2.55,2.21,2.21,0,0,1,.83-.91,2.48,2.48,0,0,1,2.54,0,2.14,2.14,0,0,1,.83.91,2.95,2.95,0,0,1,0,2.55,2.17,2.17,0,0,1-.83.92,2.48,2.48,0,0,1-2.54,0A2.24,2.24,0,0,1,314.42,143.92Zm.5-1.28a2,2,0,0,0,.43,1.33,1.41,1.41,0,0,0,1.17.55,1.45,1.45,0,0,0,.87-.27,1.6,1.6,0,0,0,.55-.68,2.34,2.34,0,0,0,.18-.93,2.24,2.24,0,0,0-.18-.91,1.6,1.6,0,0,0-.55-.68,1.54,1.54,0,0,0-1.74,0,1.6,1.6,0,0,0-.55.68A2.27,2.27,0,0,0,314.92,142.64Z"/><path class="cls-12" d="M319.93,145.06v-4.82h.75v.69a2.47,2.47,0,0,1,.75-.57,2,2,0,0,1,1-.25,1.37,1.37,0,0,1,1.53,1.57v3.38h-.74v-3.15a1.12,1.12,0,0,0-.29-.87,1.15,1.15,0,0,0-.8-.26,1.7,1.7,0,0,0-.81.22,2,2,0,0,0-.62.53v3.53Z"/><path class="cls-12" d="M324.84,144.42l.37-.54a2.23,2.23,0,0,0,1.59.69,1.39,1.39,0,0,0,.85-.23.7.7,0,0,0,.31-.6.51.51,0,0,0-.17-.39,1,1,0,0,0-.43-.24l-.58-.17-.63-.18a3.15,3.15,0,0,1-.59-.23,1.1,1.1,0,0,1-.43-.4,1.13,1.13,0,0,1-.17-.62,1.25,1.25,0,0,1,.48-1,2,2,0,0,1,1.31-.4,2.34,2.34,0,0,1,1.79.72l-.34.51a1.58,1.58,0,0,0-.61-.44,2.07,2.07,0,0,0-.84-.17,1.22,1.22,0,0,0-.77.23.67.67,0,0,0-.3.56.5.5,0,0,0,.16.36,1,1,0,0,0,.43.22l.58.16.64.18a3,3,0,0,1,.58.23,1.26,1.26,0,0,1,.44.42,1.19,1.19,0,0,1,.17.63,1.3,1.3,0,0,1-.5,1.05,2.11,2.11,0,0,1-1.4.42A2.55,2.55,0,0,1,324.84,144.42Z"/><path class="cls-12" d="M329.41,142.64a2.62,2.62,0,0,1,.31-1.27,2.28,2.28,0,0,1,.85-.92,2.31,2.31,0,0,1,1.22-.34,2.26,2.26,0,0,1,1.25.35,2.19,2.19,0,0,1,.8.93,3.12,3.12,0,0,1,.28,1.32v.19H330.2a1.79,1.79,0,0,0,.52,1.19,1.61,1.61,0,0,0,1.22.48,2.25,2.25,0,0,0,.81-.16,2.09,2.09,0,0,0,.69-.46l.36.48a2.6,2.6,0,0,1-1.92.76,2.41,2.41,0,0,1-1.78-.71A2.53,2.53,0,0,1,329.41,142.64Zm.78-.31h3.18a2.2,2.2,0,0,0-.1-.55,2.12,2.12,0,0,0-.28-.51,1.41,1.41,0,0,0-.5-.39,1.64,1.64,0,0,0-.71-.15,1.54,1.54,0,0,0-.68.15,1.57,1.57,0,0,0-.49.38,2,2,0,0,0-.29.52A1.57,1.57,0,0,0,330.19,142.33Z"/><path class="cls-12" d="M335.34,144.74a9,9,0,0,0,0-4.21,10.73,10.73,0,0,0-.8-2l.46-.35a7.14,7.14,0,0,1,1.05,2.08,7.44,7.44,0,0,1,.37,2.34,7.54,7.54,0,0,1-.37,2.35,7.14,7.14,0,0,1-1.05,2.08l-.46-.35A10.73,10.73,0,0,0,335.34,144.74Z"/><text class="cls-6" transform="translate(87.69 206.53)">Bell</text><text class="cls-10" transform="translate(61.92 219.91)">(Neutral Stimulus)</text><text class="cls-13" transform="translate(232.47 206.52)">Salivation</text><path class="cls-12" d="M234.23,218.83a7.54,7.54,0,0,1-.37-2.35,7.44,7.44,0,0,1,.37-2.34,7.68,7.68,0,0,1,1.05-2.08l.46.34a10.94,10.94,0,0,0-.79,2,8.69,8.69,0,0,0,0,4.22,10.31,10.31,0,0,0,.79,2l-.46.36A7.68,7.68,0,0,1,234.23,218.83Z"/><path class="cls-12" d="M236.47,217a3.9,3.9,0,0,1,0-2.8,3.26,3.26,0,0,1,.73-1.1,3.4,3.4,0,0,1,1.09-.7,3.75,3.75,0,0,1,1.34-.25,2.92,2.92,0,0,1,2.53,1.32l-.69.39a2.12,2.12,0,0,0-.78-.7,2.17,2.17,0,0,0-1.06-.27,2.47,2.47,0,0,0-1.83.76,2.7,2.7,0,0,0-.74,2,2.93,2.93,0,0,0,.34,1.4,2.46,2.46,0,0,0,.92,1,2.54,2.54,0,0,0,1.31.34,2.23,2.23,0,0,0,1.06-.27,2,2,0,0,0,.78-.7l.7.38a3,3,0,0,1-2.54,1.34,3.55,3.55,0,0,1-1.34-.26,3.24,3.24,0,0,1-1.09-.7A3.16,3.16,0,0,1,236.47,217Z"/><path class="cls-12" d="M243,217.77a2.83,2.83,0,0,1-.29-1.28,2.79,2.79,0,0,1,.29-1.27,2.25,2.25,0,0,1,.84-.92,2.43,2.43,0,0,1,1.27-.34,2.37,2.37,0,0,1,1.26.34,2.25,2.25,0,0,1,.84.92,2.79,2.79,0,0,1,.28,1.27,2.83,2.83,0,0,1-.28,1.28,2.19,2.19,0,0,1-.84.92,2.29,2.29,0,0,1-1.26.35,2.35,2.35,0,0,1-1.27-.35A2.19,2.19,0,0,1,243,217.77Zm.51-1.28a2.09,2.09,0,0,0,.42,1.33,1.44,1.44,0,0,0,1.18.55,1.4,1.4,0,0,0,.86-.27,1.53,1.53,0,0,0,.55-.68,2.47,2.47,0,0,0,0-1.85,1.65,1.65,0,0,0-.55-.68,1.46,1.46,0,0,0-.86-.26,1.49,1.49,0,0,0-.87.26,1.61,1.61,0,0,0-.55.69A2.27,2.27,0,0,0,243.52,216.49Z"/><path class="cls-12" d="M248.52,218.91v-4.83h.75v.7a2.5,2.5,0,0,1,.75-.58,2.16,2.16,0,0,1,1-.24,1.37,1.37,0,0,1,1.53,1.56v3.39h-.75v-3.16a1.11,1.11,0,0,0-.28-.86,1.18,1.18,0,0,0-.81-.26,1.59,1.59,0,0,0-.81.22,2.15,2.15,0,0,0-.62.53v3.53Z"/><path class="cls-12" d="M253.56,216.5a2.72,2.72,0,0,1,.6-1.84,2,2,0,0,1,1.56-.7,1.88,1.88,0,0,1,.9.23,2,2,0,0,1,.72.62v-2.57h.75v6.67h-.75v-.71a2.06,2.06,0,0,1-.7.61,2.05,2.05,0,0,1-2.48-.46A2.71,2.71,0,0,1,253.56,216.5Zm1.21-1.34a2.36,2.36,0,0,0,0,2.69,1.39,1.39,0,0,0,1.14.52,1.71,1.71,0,0,0,.83-.23,1.51,1.51,0,0,0,.6-.54v-2.19a1.53,1.53,0,0,0-.6-.55,1.71,1.71,0,0,0-.83-.23A1.39,1.39,0,0,0,254.77,215.16Z"/><path class="cls-12" d="M259.41,213.25a.51.51,0,0,1,.36-.87.47.47,0,0,1,.35.15.51.51,0,0,1,0,.72.47.47,0,0,1-.35.15A.49.49,0,0,1,259.41,213.25Zm0,5.66v-4.83h.75v4.83Z"/><path class="cls-12" d="M260.77,214.73v-.65h.81v-1.33h.75v1.33h1v.65h-1v3a.81.81,0,0,0,.12.46.42.42,0,0,0,.36.17.64.64,0,0,0,.51-.21l.22.56a1.23,1.23,0,0,1-.89.32,1,1,0,0,1-.8-.3,1.21,1.21,0,0,1-.27-.84v-3.17Z"/><path class="cls-12" d="M264.19,213.25a.51.51,0,1,1,.72-.72.53.53,0,0,1,0,.72.51.51,0,0,1-.72,0Zm0,5.66v-4.83h.74v4.83Z"/><path class="cls-12" d="M266.23,217.77a2.71,2.71,0,0,1-.29-1.28,2.67,2.67,0,0,1,.29-1.27,2.3,2.3,0,0,1,.83-.92,2.54,2.54,0,0,1,2.54,0,2.3,2.3,0,0,1,.83.92,2.79,2.79,0,0,1,.29,1.27,2.83,2.83,0,0,1-.29,1.28,2.24,2.24,0,0,1-.83.92,2.48,2.48,0,0,1-2.54,0A2.24,2.24,0,0,1,266.23,217.77Zm.5-1.28a2,2,0,0,0,.43,1.33,1.43,1.43,0,0,0,1.17.55,1.45,1.45,0,0,0,.87-.27,1.6,1.6,0,0,0,.55-.68,2.47,2.47,0,0,0,0-1.85,1.73,1.73,0,0,0-.55-.68,1.59,1.59,0,0,0-1.74,0,1.61,1.61,0,0,0-.55.69A2.27,2.27,0,0,0,266.73,216.49Z"/><path class="cls-12" d="M271.74,218.91v-4.83h.75v.7a2.5,2.5,0,0,1,.75-.58,2.12,2.12,0,0,1,1-.24,1.37,1.37,0,0,1,1.53,1.56v3.39H275v-3.16a1.11,1.11,0,0,0-.29-.86,1.15,1.15,0,0,0-.8-.26,1.59,1.59,0,0,0-.81.22,1.91,1.91,0,0,0-.62.53v3.53Z"/><path class="cls-12" d="M276.77,216.49a2.6,2.6,0,0,1,.31-1.27,2.28,2.28,0,0,1,.85-.92,2.31,2.31,0,0,1,1.22-.34,2.26,2.26,0,0,1,1.25.35,2.19,2.19,0,0,1,.8.93,3.1,3.1,0,0,1,.28,1.31v.2h-3.92a1.79,1.79,0,0,0,.52,1.19,1.61,1.61,0,0,0,1.22.48,2.06,2.06,0,0,0,.81-.17,1.82,1.82,0,0,0,.69-.46l.36.49a2.64,2.64,0,0,1-1.92.76,2.41,2.41,0,0,1-1.78-.71A2.53,2.53,0,0,1,276.77,216.49Zm.78-.31h3.18a1.78,1.78,0,0,0-.1-.55,2.12,2.12,0,0,0-.28-.51,1.41,1.41,0,0,0-.5-.39,1.64,1.64,0,0,0-.71-.15,1.54,1.54,0,0,0-.68.15,1.44,1.44,0,0,0-.49.38,2.16,2.16,0,0,0-.29.51A1.68,1.68,0,0,0,277.55,216.18Z"/><path class="cls-12" d="M282.2,216.5a2.67,2.67,0,0,1,.61-1.84,1.94,1.94,0,0,1,1.55-.7,1.89,1.89,0,0,1,.91.23,2.13,2.13,0,0,1,.72.62v-2.57h.74v6.67H286v-.71a2.2,2.2,0,0,1-.71.61,1.93,1.93,0,0,1-.92.23,2,2,0,0,1-1.56-.69A2.71,2.71,0,0,1,282.2,216.5Zm1.21-1.34a2.36,2.36,0,0,0,0,2.69,1.41,1.41,0,0,0,1.14.52,1.71,1.71,0,0,0,.84-.23,1.66,1.66,0,0,0,.6-.54v-2.19a1.64,1.64,0,0,0-.61-.55,1.71,1.71,0,0,0-.83-.23A1.39,1.39,0,0,0,283.41,215.16Z"/><path class="cls-12" d="M239,232.11v-6.67h2.68a2.11,2.11,0,0,1,1.51.55,1.91,1.91,0,0,1,.59,1.46,2.07,2.07,0,0,1-.15.8,1.53,1.53,0,0,1-.39.61,2,2,0,0,1-1.21.54l1.8,2.71h-1l-1.69-2.64h-1.33v2.64Zm.83-3.38h1.74a1.37,1.37,0,0,0,1-.35,1.24,1.24,0,0,0,.38-.93,1.21,1.21,0,0,0-.38-.92,1.37,1.37,0,0,0-1-.35h-1.74Z"/><path class="cls-12" d="M244.57,229.69a2.6,2.6,0,0,1,.31-1.27,2.35,2.35,0,0,1,3.32-.91,2.19,2.19,0,0,1,.8.93,3.07,3.07,0,0,1,.27,1.31v.19h-3.91a1.8,1.8,0,0,0,.51,1.19,1.64,1.64,0,0,0,1.22.48,2.07,2.07,0,0,0,.82-.16,2,2,0,0,0,.69-.46l.36.49a2.63,2.63,0,0,1-1.92.75,2.34,2.34,0,0,1-1.78-.71A2.51,2.51,0,0,1,244.57,229.69Zm.78-.31h3.18a1.78,1.78,0,0,0-.38-1.06,1.41,1.41,0,0,0-.5-.39,1.64,1.64,0,0,0-.71-.15,1.51,1.51,0,0,0-.68.15,1.32,1.32,0,0,0-.49.38,2.16,2.16,0,0,0-.29.51A1.63,1.63,0,0,0,245.35,229.38Z"/><path class="cls-12" d="M249.87,231.46l.38-.54a1.91,1.91,0,0,0,.69.49,2,2,0,0,0,.9.2,1.34,1.34,0,0,0,.85-.23.72.72,0,0,0,.31-.59.54.54,0,0,0-.17-.4,1,1,0,0,0-.43-.23l-.58-.17-.64-.18a3,3,0,0,1-.58-.23,1.18,1.18,0,0,1-.43-.4,1.15,1.15,0,0,1-.17-.62,1.25,1.25,0,0,1,.48-1,2,2,0,0,1,1.31-.4,2.39,2.39,0,0,1,1.79.71l-.35.52a1.62,1.62,0,0,0-.6-.44,1.91,1.91,0,0,0-.84-.17,1.26,1.26,0,0,0-.78.22.7.7,0,0,0-.29.56.47.47,0,0,0,.16.37,1.16,1.16,0,0,0,.43.22l.58.16.63.18a2.59,2.59,0,0,1,.59.23,1.13,1.13,0,0,1,.43.41,1.11,1.11,0,0,1,.17.64,1.32,1.32,0,0,1-.49,1,2.16,2.16,0,0,1-1.4.41A2.55,2.55,0,0,1,249.87,231.46Z"/><path class="cls-12" d="M254.73,234v-6.67h.75V228a2,2,0,0,1,.71-.61,1.93,1.93,0,0,1,.92-.23,2,2,0,0,1,1.56.68,3.2,3.2,0,0,1,0,3.7,2,2,0,0,1-1.56.69,1.85,1.85,0,0,1-.9-.22,2.29,2.29,0,0,1-.73-.63V234Zm.75-3.16a1.65,1.65,0,0,0,.61.55,1.66,1.66,0,0,0,.83.22,1.36,1.36,0,0,0,1.13-.52,2.09,2.09,0,0,0,.42-1.35,2.07,2.07,0,0,0-.42-1.34,1.36,1.36,0,0,0-1.13-.52,1.66,1.66,0,0,0-.83.22,1.65,1.65,0,0,0-.61.55Z"/><path class="cls-12" d="M260.26,231a2.71,2.71,0,0,1-.29-1.28,2.67,2.67,0,0,1,.29-1.27,2.24,2.24,0,0,1,.83-.92,2.54,2.54,0,0,1,2.54,0,2.24,2.24,0,0,1,.83.92,2.79,2.79,0,0,1,.29,1.27,2.83,2.83,0,0,1-.29,1.28,2.3,2.3,0,0,1-.83.92,2.54,2.54,0,0,1-2.54,0A2.3,2.3,0,0,1,260.26,231Zm.5-1.28a2.06,2.06,0,0,0,.43,1.33,1.42,1.42,0,0,0,1.17.54,1.44,1.44,0,0,0,.87-.26,1.66,1.66,0,0,0,.55-.68,2.47,2.47,0,0,0,0-1.85,1.73,1.73,0,0,0-.55-.68,1.59,1.59,0,0,0-1.74,0,1.65,1.65,0,0,0-.55.68A2.32,2.32,0,0,0,260.76,229.69Z"/><path class="cls-12" d="M265.77,232.11v-4.83h.75v.7a2.35,2.35,0,0,1,.75-.58,2.12,2.12,0,0,1,1-.24,1.37,1.37,0,0,1,1.53,1.56v3.39H269V229a1.12,1.12,0,0,0-.29-.87,1.16,1.16,0,0,0-.8-.25,1.59,1.59,0,0,0-.81.22,1.8,1.8,0,0,0-.62.53v3.53Z"/><path class="cls-12" d="M270.67,231.46l.38-.54a1.91,1.91,0,0,0,.69.49,2,2,0,0,0,.9.2,1.34,1.34,0,0,0,.85-.23.72.72,0,0,0,.31-.59.54.54,0,0,0-.17-.4,1,1,0,0,0-.43-.23l-.58-.17-.64-.18a3,3,0,0,1-.58-.23,1.18,1.18,0,0,1-.43-.4,1.15,1.15,0,0,1-.17-.62,1.25,1.25,0,0,1,.48-1,2,2,0,0,1,1.31-.4,2.37,2.37,0,0,1,1.79.71l-.34.52a1.65,1.65,0,0,0-.61-.44,1.91,1.91,0,0,0-.84-.17,1.26,1.26,0,0,0-.78.22.7.7,0,0,0-.29.56.47.47,0,0,0,.16.37,1.16,1.16,0,0,0,.43.22l.58.16.63.18a2.42,2.42,0,0,1,.59.23,1.23,1.23,0,0,1,.44.41,1.19,1.19,0,0,1,.16.64,1.32,1.32,0,0,1-.49,1,2.16,2.16,0,0,1-1.4.41A2.55,2.55,0,0,1,270.67,231.46Z"/><path class="cls-12" d="M275.25,229.69a2.6,2.6,0,0,1,.31-1.27,2.35,2.35,0,0,1,3.32-.91,2.19,2.19,0,0,1,.8.93,3.07,3.07,0,0,1,.27,1.31v.19H276a1.8,1.8,0,0,0,.51,1.19,1.64,1.64,0,0,0,1.22.48,2.07,2.07,0,0,0,.82-.16,2,2,0,0,0,.69-.46l.36.49a2.63,2.63,0,0,1-1.92.75,2.36,2.36,0,0,1-1.78-.71A2.51,2.51,0,0,1,275.25,229.69Zm.78-.31h3.18a1.78,1.78,0,0,0-.38-1.06,1.41,1.41,0,0,0-.5-.39,1.64,1.64,0,0,0-.71-.15,1.54,1.54,0,0,0-.68.15,1.32,1.32,0,0,0-.49.38,2.16,2.16,0,0,0-.29.51A1.63,1.63,0,0,0,276,229.38Z"/><path class="cls-12" d="M281.17,231.79a7.67,7.67,0,0,0,.26-2.11,7.57,7.57,0,0,0-.26-2.11,10,10,0,0,0-.79-2l.46-.34a7,7,0,0,1,1.05,2.08,7.58,7.58,0,0,1,0,4.68,7,7,0,0,1-1.05,2.08l-.46-.35A9.93,9.93,0,0,0,281.17,231.79Z"/></g></g></svg>