<svg xmlns="http://www.w3.org/2000/svg" viewBox="0 0 561.44 107.15"><defs><style>.cls-1{fill:none;stroke:#bec4c6;stroke-miterlimit:10;stroke-width:2px;}.cls-2{fill:#2d4c7a;}.cls-3{fill:#4e99ff;}.cls-4{fill:#e5173a;}.cls-5,.cls-9{font-size:19px;}.cls-5,.cls-6,.cls-7,.cls-9{fill:#fff;}.cls-5,.cls-8,.cls-9{font-family:ProximaNova-Bold, Proxima Nova;font-weight:700;}.cls-5{letter-spacing:-0.02em;}.cls-7{font-size:16px;font-family:ProximaNova-Regular, Proxima Nova;letter-spacing:-0.02em;}.cls-8,.cls-9{letter-spacing:-0.02em;}</style></defs><title>cognitive_2</title><g id="Layer_2" data-name="Layer 2"><g id="Layer_1-2" data-name="Layer 1"><line class="cls-1" x1="348.1" y1="53.58" x2="414.35" y2="53.58"/><line class="cls-1" x1="142" y1="53.58" x2="214.73" y2="53.58"/><rect class="cls-2" width="146.99" height="107.15" rx="12"/><rect class="cls-3" x="208.16" width="146.99" height="107.15" rx="12"/><rect class="cls-4" x="414.45" width="146.99" height="107.15" rx="12"/><text class="cls-5" transform="translate(50.79 36.75)">Input </text><path class="cls-6" d="M54,59V48.32H55.3V59Z"/><path class="cls-6" d="M57.42,59V51.27h1.2v1.11a3.82,3.82,0,0,1,1.2-.92,3.38,3.38,0,0,1,1.57-.39,2.19,2.19,0,0,1,2.46,2.5V59h-1.2V53.94a1.83,1.83,0,0,0-.45-1.39,1.87,1.87,0,0,0-1.29-.41,2.61,2.61,0,0,0-1.29.35,3.24,3.24,0,0,0-1,.85V59Z"/><path class="cls-6" d="M68.68,52.31v-1H70V49.13h1.19v2.14h1.6v1h-1.6v4.81a1.24,1.24,0,0,0,.2.73.66.66,0,0,0,.57.27,1,1,0,0,0,.82-.34l.35.91a2,2,0,0,1-1.42.5,1.63,1.63,0,0,1-1.28-.48A1.89,1.89,0,0,1,70,57.37V52.31Z"/><path class="cls-6" d="M74.15,59V48.32h1.2v4.06a3.62,3.62,0,0,1,1.18-.92,3.35,3.35,0,0,1,1.57-.39,2.18,2.18,0,0,1,2.46,2.47V59h-1.2V53.91a1.79,1.79,0,0,0-.44-1.37,1.87,1.87,0,0,0-1.3-.4,2.66,2.66,0,0,0-1.29.35,3,3,0,0,0-1,.85V59Z"/><path class="cls-6" d="M82.19,55.12a4.27,4.27,0,0,1,.49-2A3.84,3.84,0,0,1,84,51.61a3.82,3.82,0,0,1,3.95,0,3.49,3.49,0,0,1,1.29,1.48,5,5,0,0,1,.43,2.11v.3H83.46a2.9,2.9,0,0,0,.81,1.91,2.62,2.62,0,0,0,2,.77,3.48,3.48,0,0,0,1.31-.26,3.28,3.28,0,0,0,1.1-.74l.57.79a4.24,4.24,0,0,1-3.08,1.2,3.79,3.79,0,0,1-2.83-1.13A4,4,0,0,1,82.19,55.12Zm1.25-.49h5.08a3,3,0,0,0-.16-.89,2.87,2.87,0,0,0-.45-.82,2.29,2.29,0,0,0-.8-.62A2.57,2.57,0,0,0,86,52.06a2.38,2.38,0,0,0-1.08.24,2.12,2.12,0,0,0-.79.61,3.06,3.06,0,0,0-.47.82A2.86,2.86,0,0,0,83.44,54.63Z"/><path class="cls-6" d="M30,72.12a4.27,4.27,0,0,1,.49-2,3.84,3.84,0,0,1,1.36-1.47,3.82,3.82,0,0,1,3.95,0,3.49,3.49,0,0,1,1.29,1.48,5,5,0,0,1,.43,2.11v.3H31.23A2.9,2.9,0,0,0,32,74.43a2.62,2.62,0,0,0,2,.77,3.48,3.48,0,0,0,1.31-.26,3.28,3.28,0,0,0,1.1-.74L37,75a4.24,4.24,0,0,1-3.08,1.2,3.79,3.79,0,0,1-2.83-1.13A4,4,0,0,1,30,72.12Zm1.25-.49h5.08a3,3,0,0,0-.16-.89,2.87,2.87,0,0,0-.45-.82,2.29,2.29,0,0,0-.8-.62,2.57,2.57,0,0,0-1.13-.24,2.38,2.38,0,0,0-1.08.24,2.12,2.12,0,0,0-.79.61,3.06,3.06,0,0,0-.47.82A2.86,2.86,0,0,0,31.21,71.63Z"/><path class="cls-6" d="M39.1,76V68.27h1.2v1.11a3.82,3.82,0,0,1,1.2-.92,3.35,3.35,0,0,1,1.57-.39,2.18,2.18,0,0,1,2.45,2.5V76H44.33v-5a1.83,1.83,0,0,0-.45-1.39,1.9,1.9,0,0,0-1.29-.41,2.67,2.67,0,0,0-1.3.35,3.32,3.32,0,0,0-1,.85V76Z"/><path class="cls-6" d="M46.45,68.27h1.32l2.56,6.33,2.57-6.33h1.3L51,76H49.67Z"/><path class="cls-6" d="M55.15,66.93a.81.81,0,1,1,1.15-1.14.82.82,0,0,1,0,1.14.83.83,0,0,1-1.15,0Zm0,9.06V68.27h1.19V76Z"/><path class="cls-6" d="M58.4,76V68.27h1.2v1.22a3.86,3.86,0,0,1,1.16-1,2.72,2.72,0,0,1,1.41-.38v1.22a2.85,2.85,0,0,0-.46,0,2.43,2.43,0,0,0-1.2.38,2.38,2.38,0,0,0-.91.86V76Z"/><path class="cls-6" d="M63.36,74.17a4.78,4.78,0,0,1,0-4.09,3.56,3.56,0,0,1,1.34-1.46,4,4,0,0,1,4.06,0,3.53,3.53,0,0,1,1.33,1.46,4.78,4.78,0,0,1,0,4.09,3.62,3.62,0,0,1-1.33,1.47,4,4,0,0,1-4.06,0A3.65,3.65,0,0,1,63.36,74.17Zm.81-2a3.33,3.33,0,0,0,.68,2.13,2.28,2.28,0,0,0,1.88.87,2.3,2.3,0,0,0,1.38-.42A2.56,2.56,0,0,0,69,73.6a3.56,3.56,0,0,0,.29-1.48A3.51,3.51,0,0,0,69,70.65a2.59,2.59,0,0,0-.88-1.09,2.3,2.3,0,0,0-1.38-.42,2.33,2.33,0,0,0-1.39.42,2.65,2.65,0,0,0-.89,1.1A3.65,3.65,0,0,0,64.17,72.12Z"/><path class="cls-6" d="M72.18,76V68.27h1.2v1.11a3.82,3.82,0,0,1,1.2-.92,3.35,3.35,0,0,1,1.57-.39,2.18,2.18,0,0,1,2.45,2.5V76H77.41v-5A1.83,1.83,0,0,0,77,69.55a1.9,1.9,0,0,0-1.29-.41,2.67,2.67,0,0,0-1.3.35,3.32,3.32,0,0,0-1,.85V76Z"/><path class="cls-6" d="M80.69,76V68.27h1.19v1.11a3.34,3.34,0,0,1,1-.88,2.8,2.8,0,0,1,1.49-.43,2.16,2.16,0,0,1,1.36.4,2,2,0,0,1,.7,1,3.21,3.21,0,0,1,1.08-1,2.93,2.93,0,0,1,1.52-.44,2.12,2.12,0,0,1,1.61.59,2.49,2.49,0,0,1,.54,1.75V76H90V70.74c0-1.06-.48-1.6-1.43-1.6a2.26,2.26,0,0,0-1.16.35,2.67,2.67,0,0,0-.89.84V76H85.35V70.74c0-1.06-.48-1.6-1.43-1.6a2.12,2.12,0,0,0-1.14.36,2.92,2.92,0,0,0-.9.84V76Z"/><path class="cls-6" d="M92.84,72.12a4.27,4.27,0,0,1,.49-2,3.82,3.82,0,0,1,1.35-1.47,3.68,3.68,0,0,1,2-.54,3.6,3.6,0,0,1,2,.56,3.49,3.49,0,0,1,1.29,1.48,5,5,0,0,1,.43,2.11v.3H94.1a2.91,2.91,0,0,0,.82,1.91,2.61,2.61,0,0,0,2,.77,3.44,3.44,0,0,0,1.31-.26,3.19,3.19,0,0,0,1.1-.74l.58.79a4.24,4.24,0,0,1-3.08,1.2,3.83,3.83,0,0,1-2.84-1.13A4.07,4.07,0,0,1,92.84,72.12Zm1.25-.49h5.08a3,3,0,0,0-.16-.89,3.46,3.46,0,0,0-.45-.82,2.29,2.29,0,0,0-.8-.62,2.61,2.61,0,0,0-1.14-.24,2.44,2.44,0,0,0-1.08.24,2.17,2.17,0,0,0-.78.61,3.39,3.39,0,0,0-.48.82A2.84,2.84,0,0,0,94.09,71.63Z"/><path class="cls-6" d="M102,76V68.27h1.19v1.11a4,4,0,0,1,1.21-.92,3.35,3.35,0,0,1,1.57-.39,2.19,2.19,0,0,1,2.45,2.5V76h-1.19v-5a1.83,1.83,0,0,0-.46-1.39,1.87,1.87,0,0,0-1.29-.41,2.63,2.63,0,0,0-1.29.35,3.36,3.36,0,0,0-1,.85V76Z"/><path class="cls-6" d="M109.42,69.31v-1h1.3V66.13h1.2v2.14h1.59v1h-1.59v4.81a1.24,1.24,0,0,0,.19.73.66.66,0,0,0,.57.27,1,1,0,0,0,.82-.34l.35.91a2,2,0,0,1-1.42.5,1.64,1.64,0,0,1-1.28-.48,1.94,1.94,0,0,1-.43-1.34V69.31Z"/><path class="cls-6" d="M244.25,35.75V26.61l-3.57,9.14H239.5l-3.57-9.14v9.14h-2.7V23.08H237L240.09,31l3.08-7.92H247V35.75Z"/><path class="cls-6" d="M248.45,31.15a4.68,4.68,0,0,1,4.75-4.81c2.75,0,4.6,2.05,4.6,5V32H251A2.46,2.46,0,0,0,253.62,34a3.83,3.83,0,0,0,2.43-.89l1.08,1.59A5.68,5.68,0,0,1,253.35,36,4.65,4.65,0,0,1,248.45,31.15Zm4.75-2.83a2.11,2.11,0,0,0-2.24,2h4.52A2.11,2.11,0,0,0,253.2,28.32Z"/><path class="cls-6" d="M265.47,35.75V34.57a3.53,3.53,0,0,1-2.83,1.4c-2.3,0-4.06-1.74-4.06-4.82s1.72-4.81,4.06-4.81a3.48,3.48,0,0,1,2.83,1.41V23.08h2.43V35.75Zm0-3V29.53a2.63,2.63,0,0,0-2.07-1,2.39,2.39,0,0,0-2.34,2.66,2.4,2.4,0,0,0,2.34,2.68A2.61,2.61,0,0,0,265.47,32.78Z"/><path class="cls-6" d="M269.69,24.14a1.44,1.44,0,1,1,1.43,1.44A1.43,1.43,0,0,1,269.69,24.14Zm.23,11.61V26.57h2.41v9.18Z"/><path class="cls-6" d="M279.85,35.75v-1A3.72,3.72,0,0,1,277,36a3,3,0,0,1-3.17-3A2.91,2.91,0,0,1,277,30a3.73,3.73,0,0,1,2.9,1.12V29.93c0-.93-.79-1.54-2-1.54a3.83,3.83,0,0,0-2.64,1.09l-.95-1.69a5.92,5.92,0,0,1,4-1.45c2.11,0,4,.84,4,3.48v5.93Zm0-2.21V32.4a2.4,2.4,0,0,0-1.93-.81c-.95,0-1.73.51-1.73,1.38s.78,1.37,1.73,1.37A2.39,2.39,0,0,0,279.85,33.54Z"/><path class="cls-6" d="M284.78,33.45V28.68h-1.52V26.57h1.52V24.06h2.41v2.51h1.86v2.11h-1.86V32.8c0,.59.3,1,.84,1a1.2,1.2,0,0,0,.83-.29l.51,1.84a2.92,2.92,0,0,1-2,.59A2.28,2.28,0,0,1,284.78,33.45Z"/><path class="cls-6" d="M290.1,24.14a1.44,1.44,0,0,1,2.87,0,1.44,1.44,0,1,1-2.87,0Zm.22,11.61V26.57h2.42v9.18Z"/><path class="cls-6" d="M294.16,31.15a4.86,4.86,0,0,1,9.71,0,4.86,4.86,0,0,1-9.71,0Zm7.2,0a2.36,2.36,0,1,0-4.69,0,2.37,2.37,0,1,0,4.69,0Z"/><path class="cls-6" d="M311.49,35.75V30.2a1.49,1.49,0,0,0-1.69-1.71,2.69,2.69,0,0,0-2.09,1.06v6.2H305.3V26.57h2.41v1.18a4.28,4.28,0,0,1,3.21-1.41,2.68,2.68,0,0,1,3,2.93v6.48Z"/><path class="cls-6" d="M321.43,35.75v-1A3.75,3.75,0,0,1,318.52,36a3,3,0,0,1-3.17-3,2.91,2.91,0,0,1,3.17-3,3.77,3.77,0,0,1,2.91,1.12V29.93c0-.93-.8-1.54-2-1.54a3.83,3.83,0,0,0-2.64,1.09l-.95-1.69a5.92,5.92,0,0,1,4-1.45c2.11,0,4,.84,4,3.48v5.93Zm0-2.21V32.4a2.43,2.43,0,0,0-1.94-.81c-.95,0-1.73.51-1.73,1.38s.78,1.37,1.73,1.37A2.43,2.43,0,0,0,321.43,33.54Z"/><path class="cls-6" d="M325.85,35.75V23.08h2.42V35.75Z"/><path class="cls-6" d="M247,54.75V42.08h5.92a4.07,4.07,0,1,1,0,8.14h-3.23v4.53Zm7.42-8.59a1.71,1.71,0,0,0-1.88-1.71h-2.85v3.4h2.85A1.71,1.71,0,0,0,254.41,46.16Z"/><path class="cls-6" d="M258.42,54.75V45.57h2.42v1.24a4,4,0,0,1,2.92-1.47V47.7a2.91,2.91,0,0,0-.66-.06,3.07,3.07,0,0,0-2.26,1v6.06Z"/><path class="cls-6" d="M264.3,50.15A4.85,4.85,0,1,1,269.14,55,4.65,4.65,0,0,1,264.3,50.15Zm7.2,0a2.37,2.37,0,1,0-4.7,0,2.37,2.37,0,1,0,4.7,0Z"/><path class="cls-6" d="M274.84,50.15a4.67,4.67,0,0,1,4.86-4.81A4.29,4.29,0,0,1,283.33,47l-1.57,1.49a2.23,2.23,0,0,0-1.94-1,2.68,2.68,0,0,0,0,5.34,2.3,2.3,0,0,0,1.94-1l1.57,1.48A4.27,4.27,0,0,1,279.7,55,4.66,4.66,0,0,1,274.84,50.15Z"/><path class="cls-6" d="M283.94,50.15a4.69,4.69,0,0,1,4.75-4.81c2.76,0,4.6,2,4.6,5V51h-6.82a2.46,2.46,0,0,0,2.64,2,3.83,3.83,0,0,0,2.43-.89l1.08,1.59A5.68,5.68,0,0,1,288.84,55,4.65,4.65,0,0,1,283.94,50.15Zm4.75-2.83a2.11,2.11,0,0,0-2.24,2H291A2.1,2.1,0,0,0,288.69,47.32Z"/><path class="cls-6" d="M293.86,53.55l1-1.75a5.21,5.21,0,0,0,3.18,1.27c1,0,1.54-.39,1.54-1,0-1.51-5.44-.27-5.44-3.88,0-1.54,1.33-2.89,3.76-2.89a5.81,5.81,0,0,1,3.69,1.26l-1,1.71a4,4,0,0,0-2.72-1.07c-.87,0-1.44.38-1.44.89,0,1.35,5.45.21,5.45,3.92,0,1.69-1.44,2.92-4,2.92A6.19,6.19,0,0,1,293.86,53.55Z"/><path class="cls-6" d="M302.54,53.55l1-1.75a5.16,5.16,0,0,0,3.17,1.27c1,0,1.54-.39,1.54-1,0-1.51-5.44-.27-5.44-3.88,0-1.54,1.33-2.89,3.77-2.89a5.8,5.8,0,0,1,3.68,1.26l-1,1.71a3.94,3.94,0,0,0-2.71-1.07c-.88,0-1.45.38-1.45.89,0,1.35,5.45.21,5.45,3.92,0,1.69-1.44,2.92-4,2.92A6.2,6.2,0,0,1,302.54,53.55Z"/><text class="cls-7" transform="translate(237.32 75.9)">mental event<tspan class="cls-8" x="87.18" y="0"> </tspan></text><text class="cls-9" transform="translate(454.85 48.58)">Output </text><text class="cls-7" transform="translate(442.53 68.9)">mental event<tspan class="cls-8" x="87.18" y="0"> </tspan></text></g></g></svg>