<svg xmlns="http://www.w3.org/2000/svg" viewBox="0 0 619.29 279.36"><defs><style>.cls-1,.cls-2{fill:none;}.cls-1,.cls-17,.cls-2{stroke:#bec4c6;stroke-miterlimit:10;}.cls-2{stroke-linecap:round;}.cls-3{fill:#19e6cd;}.cls-4,.cls-9{font-size:15px;}.cls-10,.cls-13,.cls-14,.cls-16,.cls-4,.cls-6,.cls-7,.cls-9{fill:#fff;}.cls-14,.cls-16,.cls-4,.cls-9{font-family:ProximaNova-Bold, Proxima Nova;font-weight:700;}.cls-4{letter-spacing:-0.04em;}.cls-5{letter-spacing:-0.02em;}.cls-6{font-size:12px;}.cls-10,.cls-6,.cls-7{font-family:ProximaNova-Regular, Proxima Nova;}.cls-15,.cls-6,.cls-9{letter-spacing:-0.02em;}.cls-7{font-size:25px;letter-spacing:-0.02em;}.cls-8{fill:#e5173a;}.cls-10{font-size:33px;letter-spacing:-0.02em;}.cls-11{fill:#2d4c7a;}.cls-12{fill:#4e99ff;}.cls-14,.cls-16{font-size:17px;}.cls-14{letter-spacing:-0.05em;}.cls-16{letter-spacing:-0.02em;}.cls-17{fill:#fcfcfc;opacity:0.53;}</style></defs><title>operant_3</title><g id="Layer_2" data-name="Layer 2"><g id="Layer_1-2" data-name="Layer 1"><line class="cls-1" x1="469.71" y1="176.84" x2="469.71" y2="195.58"/><line class="cls-2" x1="386.12" y1="195.08" x2="552.04" y2="195.08"/><line class="cls-1" x1="386.12" y1="195.08" x2="386.12" y2="215.86"/><line class="cls-2" x1="552.04" y1="195.08" x2="552.04" y2="213.81"/><rect class="cls-3" x="321.83" y="213.42" width="131.88" height="65.49" rx="12"/><text class="cls-4" transform="translate(360.26 237.54)">P<tspan class="cls-5" x="8.82" y="0">ositive </tspan></text><text class="cls-6" transform="translate(334.72 252.33)">(Stimulus Presented)</text><text class="cls-7" transform="translate(381.53 271.39)">+</text><rect class="cls-8" x="487.41" y="213.42" width="131.88" height="65.49" rx="12"/><text class="cls-9" transform="translate(522.45 236.41)">Negative </text><text class="cls-6" transform="translate(502.26 251.2)">(Stimulus Removed)</text><text class="cls-10" transform="translate(548.73 268.26)">-</text><rect class="cls-11" x="221.44" width="174.59" height="65.94" rx="12"/><rect class="cls-12" x="47.85" y="111.35" width="193.61" height="65.94" rx="12.64"/><rect class="cls-12" x="371.45" y="111.35" width="193.61" height="65.94" rx="12.64"/><path class="cls-13" d="M278.68,25.31a5.93,5.93,0,0,1,11.85,0,5.93,5.93,0,0,1-11.85,0Zm9.37,0a3.45,3.45,0,1,0-6.88,0,3.45,3.45,0,1,0,6.88,0Z"/><path class="cls-13" d="M294,29.91V34.1h-2.16V22.76H294v1a3.18,3.18,0,0,1,2.53-1.25c2.11,0,3.64,1.57,3.64,4.3s-1.53,4.32-3.64,4.32A3.16,3.16,0,0,1,294,29.91Zm3.94-3.06a2.14,2.14,0,0,0-2.09-2.38,2.41,2.41,0,0,0-1.85.94V28.3a2.43,2.43,0,0,0,1.85.95A2.15,2.15,0,0,0,297.94,26.85Z"/><path class="cls-13" d="M300.89,26.85a4.18,4.18,0,0,1,4.25-4.3c2.46,0,4.11,1.84,4.11,4.51v.51h-6.1a2.2,2.2,0,0,0,2.36,1.83,3.44,3.44,0,0,0,2.18-.79l1,1.42a5.08,5.08,0,0,1-3.38,1.14A4.15,4.15,0,0,1,300.89,26.85Zm4.25-2.53a1.89,1.89,0,0,0-2,1.75h4.05A1.89,1.89,0,0,0,305.14,24.32Z"/><path class="cls-13" d="M310.47,31V22.76h2.16v1.1a3.63,3.63,0,0,1,2.62-1.31v2.11a3,3,0,0,0-.59-.05,2.75,2.75,0,0,0-2,.94V31Z"/><path class="cls-13" d="M321.18,31V30.1a3.35,3.35,0,0,1-2.6,1.07,2.72,2.72,0,0,1-2.84-2.72,2.6,2.6,0,0,1,2.84-2.65,3.36,3.36,0,0,1,2.6,1v-1c0-.84-.71-1.38-1.8-1.38a3.44,3.44,0,0,0-2.36,1l-.85-1.51a5.25,5.25,0,0,1,3.59-1.3c1.88,0,3.6.75,3.6,3.11V31Zm0-2V28a2.14,2.14,0,0,0-1.73-.73c-.85,0-1.55.45-1.55,1.24s.7,1.22,1.55,1.22A2.15,2.15,0,0,0,321.18,29Z"/><path class="cls-13" d="M330.69,31V26a1.34,1.34,0,0,0-1.52-1.53,2.41,2.41,0,0,0-1.87,1V31h-2.16V22.76h2.16v1a3.86,3.86,0,0,1,2.88-1.26,2.39,2.39,0,0,1,2.68,2.62V31Z"/><path class="cls-13" d="M335.09,28.91V24.64h-1.36V22.76h1.36V20.51h2.16v2.25h1.66v1.88h-1.66v3.69c0,.53.27.92.75.92a1.1,1.1,0,0,0,.74-.25l.46,1.64a2.65,2.65,0,0,1-1.8.53A2,2,0,0,1,335.09,28.91Z"/><path class="cls-13" d="M261.51,38.51a5.75,5.75,0,0,1,6.05-5.87,5.14,5.14,0,0,1,4.72,2.77l-2.07,1a3.07,3.07,0,0,0-2.65-1.65A3.53,3.53,0,0,0,264,38.51a3.53,3.53,0,0,0,3.57,3.72,3.07,3.07,0,0,0,2.65-1.65l2.07,1a5.19,5.19,0,0,1-4.72,2.79A5.76,5.76,0,0,1,261.51,38.51Z"/><path class="cls-13" d="M272.81,40.05a4.35,4.35,0,1,1,4.34,4.32A4.16,4.16,0,0,1,272.81,40.05Zm6.44,0a2.12,2.12,0,1,0-4.2,0,2.12,2.12,0,1,0,4.2,0Z"/><path class="cls-13" d="M288.31,44.17v-5c0-1.14-.59-1.53-1.51-1.53a2.43,2.43,0,0,0-1.87.95v5.55h-2.16V36h2.16v1a3.86,3.86,0,0,1,2.87-1.26,2.4,2.4,0,0,1,2.69,2.62v5.8Z"/><path class="cls-13" d="M297.92,44.17V43.11a3.16,3.16,0,0,1-2.53,1.26c-2.06,0-3.64-1.56-3.64-4.32s1.55-4.3,3.64-4.3A3.12,3.12,0,0,1,297.92,37V32.83h2.18V44.17Zm0-2.66v-2.9a2.33,2.33,0,0,0-1.85-.94A2.14,2.14,0,0,0,294,40.05a2.15,2.15,0,0,0,2.09,2.4A2.33,2.33,0,0,0,297.92,41.51Z"/><path class="cls-13" d="M301.69,33.78A1.29,1.29,0,1,1,303,35.07,1.28,1.28,0,0,1,301.69,33.78Zm.21,10.39V36h2.16v8.21Z"/><path class="cls-13" d="M306.3,42.11V37.84h-1.36V36h1.36V33.71h2.16V36h1.66v1.88h-1.66v3.69c0,.53.27.92.75.92a1,1,0,0,0,.74-.26l.46,1.65a2.65,2.65,0,0,1-1.8.53A2,2,0,0,1,306.3,42.11Z"/><path class="cls-13" d="M311.06,33.78a1.29,1.29,0,1,1,1.28,1.29A1.28,1.28,0,0,1,311.06,33.78Zm.2,10.39V36h2.16v8.21Z"/><path class="cls-13" d="M314.7,40.05A4.34,4.34,0,1,1,319,44.37,4.15,4.15,0,0,1,314.7,40.05Zm6.44,0a2.12,2.12,0,1,0-4.2,0,2.12,2.12,0,1,0,4.2,0Z"/><path class="cls-13" d="M330.2,44.17v-5c0-1.14-.59-1.53-1.51-1.53a2.41,2.41,0,0,0-1.87.95v5.55h-2.16V36h2.16v1a3.86,3.86,0,0,1,2.87-1.26,2.4,2.4,0,0,1,2.69,2.62v5.8Z"/><path class="cls-13" d="M334,33.78a1.29,1.29,0,0,1,2.57,0,1.29,1.29,0,1,1-2.57,0Zm.2,10.39V36h2.16v8.21Z"/><path class="cls-13" d="M343.67,44.17v-5a1.34,1.34,0,0,0-1.52-1.53,2.43,2.43,0,0,0-1.87.95v5.55h-2.16V36h2.16v1a3.86,3.86,0,0,1,2.88-1.26,2.39,2.39,0,0,1,2.68,2.62v5.8Z"/><path class="cls-13" d="M347.46,46.27l1-1.54a3.33,3.33,0,0,0,2.56,1,2,2,0,0,0,2.28-2.11v-.8a3.19,3.19,0,0,1-2.55,1.28c-2,0-3.62-1.43-3.62-4.17s1.55-4.18,3.62-4.18A3.14,3.14,0,0,1,353.27,37V36h2.16v7.66c0,3.11-2.41,3.88-4.44,3.88A5,5,0,0,1,347.46,46.27Zm5.81-5V38.59a2.42,2.42,0,0,0-1.85-.92,2,2,0,0,0-2.09,2.26,2,2,0,0,0,2.09,2.26A2.43,2.43,0,0,0,353.27,41.26Z"/><text class="cls-14" transform="translate(89.28 151.32)">R<tspan class="cls-15" x="10.08" y="0">einforcement </tspan></text><text class="cls-16" transform="translate(424.04 150.32)">Punishment </text><line class="cls-17" x1="308.73" y1="65.94" x2="308.73" y2="89.4"/><line class="cls-1" x1="308.73" y1="89.4" x2="469.56" y2="89.4"/><line class="cls-1" x1="147.88" y1="89.4" x2="308.71" y2="89.4"/><line class="cls-1" x1="147.88" y1="109.36" x2="147.88" y2="88.91"/><line class="cls-1" x1="469.56" y1="88.9" x2="469.56" y2="109.32"/><line class="cls-1" x1="147.88" y1="177.29" x2="147.88" y2="196.02"/><line class="cls-2" x1="64.3" y1="195.53" x2="230.21" y2="195.53"/><line class="cls-1" x1="64.3" y1="195.53" x2="64.3" y2="214.26"/><line class="cls-2" x1="230.21" y1="195.53" x2="230.21" y2="214.26"/><rect class="cls-3" y="213.87" width="131.88" height="65.49" rx="12"/><text class="cls-4" transform="translate(38.44 237.99)">P<tspan class="cls-5" x="8.82" y="0">ositive </tspan></text><text class="cls-6" transform="translate(12.89 252.78)">(Stimulus Presented)</text><text class="cls-7" transform="translate(59.71 269.83)">+</text><rect class="cls-8" x="165.59" y="213.87" width="131.88" height="65.49" rx="12"/><text class="cls-9" transform="translate(200.62 236.86)">Negative </text><text class="cls-6" transform="translate(180.44 251.65)">(Stimulus Removed)</text><text class="cls-10" transform="translate(226.91 268.7)">-</text></g></g></svg>